# xmcd
# Copyright (C) 1995-1998 Ti Kan
#
# Track frame offsets:
#       150
#       15640
#       28817
#       49970
#       61942
#       79092
#       97945
#       116802
#       135870
#       151362
#       162052
#       181660
#       201675
#
# Disc length: 2912 seconds
#
# Revision: 0
# Processed by: cddbd v1.5.1PL0 Copyright (c) Steve Scherf et al.
# Submitted via: CD-Transfer v1.0
#
DISCID=a30b5e0d
DTITLE=The Moondog Show - Evergreens
DYEAR=2004
DGENRE=
TTITLE0=Seven Sisters
TTITLE1=What She Said
TTITLE2=Better Times
TTITLE3=Moon Sun Stars
TTITLE4=No One Is Driven To Tears
TTITLE5=So Hard To Let You Know
TTITLE6=My Jolie
TTITLE7=Newborn
TTITLE8=Baby Doll
TTITLE9=My Blue Book
TTITLE10=I Feel
TTITLE11=Tune In
TTITLE12=One Last Little Melody
EXTD=
EXTT0=
EXTT1=
EXTT2=
EXTT3=
EXTT4=
EXTT5=
EXTT6=
EXTT7=
EXTT8=
EXTT9=
EXTT10=
EXTT11=
EXTT12=
PLAYORDER=
